<svg width="9" height="17" viewBox="0 0 9 17" fill="none" xmlns="http://www.w3.org/2000/svg">
<path fill-rule="evenodd" clip-rule="evenodd" d="M8.66109 0.00353718L6.5024 0C4.07718 0 2.5099 1.64211 2.5099 4.18372V6.1127H0.339433C0.151879 6.1127 0 6.26798 0 6.45952V9.25438C0 9.44592 0.152052 9.60102 0.339433 9.60102H2.5099V16.6534C2.5099 16.8449 2.66178 17 2.84933 17H5.68118C5.86873 17 6.02061 16.8447 6.02061 16.6534V9.60102H8.55839C8.74594 9.60102 8.89782 9.44592 8.89782 9.25438L8.89886 6.45952C8.89886 6.36755 8.86301 6.27948 8.79946 6.21439C8.7359 6.14931 8.64931 6.1127 8.55926 6.1127H6.02061V4.47748C6.02061 3.69153 6.20401 3.29254 7.20655 3.29254L8.66074 3.29201C8.84812 3.29201 9 3.13673 9 2.94537V0.350177C9 0.158995 8.8483 0.0038909 8.66109 0.00353718Z" fill="white"/>
</svg>
