<svg width="17" height="15" viewBox="0 0 17 15" fill="none" xmlns="http://www.w3.org/2000/svg">
<path fill-rule="evenodd" clip-rule="evenodd" d="M16.5296 0.664992C15.8565 1.06813 15.1111 1.36133 14.315 1.52258C13.6782 0.833579 12.7735 0.408447 11.7676 0.408447C9.84249 0.408447 8.27927 1.99169 8.27927 3.94143C8.27927 4.21997 8.30822 4.49117 8.37335 4.74771C5.47126 4.60112 2.90209 3.19379 1.17965 1.05347C0.882929 1.57389 0.709238 2.18227 0.709238 2.8273C0.709238 4.05138 1.32439 5.1362 2.26522 5.76656C1.69349 5.7519 1.15794 5.59065 0.687527 5.32677V5.37075C0.687527 7.08593 1.88889 8.50792 3.48829 8.83777C3.19881 8.9184 2.88761 8.96237 2.56918 8.96237C2.34483 8.96237 2.12771 8.94038 1.9106 8.89641C2.35207 10.3037 3.64027 11.3226 5.1673 11.3519C3.97318 12.2975 2.46786 12.8619 0.832269 12.8619C0.550021 12.8619 0.275011 12.8472 0 12.8105C1.52703 13.8221 3.36526 14.4084 5.33376 14.4084C11.7531 14.4084 15.2631 9.02101 15.2631 4.3519C15.2631 4.19798 15.2631 4.04405 15.2559 3.89745C15.9361 3.39902 16.5296 2.77599 17 2.06499C16.3776 2.34353 15.7046 2.5341 14.9953 2.62206C15.719 2.18227 16.2691 1.49326 16.5296 0.664992Z" fill="white"/>
</svg>
